<svg id="Layer_1" data-name="Layer 1" xmlns="http://www.w3.org/2000/svg" viewBox="0 0 215.69 44.72"><defs><style>.cls-1,.cls-2{fill:#fff;}.cls-1{stroke:#fff;stroke-miterlimit:10;stroke-width:0.75px;}</style></defs><title>EverLearn_Logo-2-white</title><path class="cls-1" d="M30.3,31.55v3.74H9V5.13H29.71V8.88H13.18v9.27H27.91v3.66H13.18v9.74Z"/><path class="cls-1" d="M55.66,12.82,45.92,35.29H41.81L32.07,12.82h4.2l7.64,18,7.81-18Z"/><path class="cls-1" d="M78.62,25.28H60.57A7,7,0,0,0,63.15,30a8.49,8.49,0,0,0,5.48,1.78,8.25,8.25,0,0,0,6.42-2.69l2.22,2.6a9.55,9.55,0,0,1-3.75,2.69,13,13,0,0,1-5,.92,13.19,13.19,0,0,1-6.25-1.44,10.36,10.36,0,0,1-4.22-4,11.68,11.68,0,0,1-1.49-5.88A11.73,11.73,0,0,1,58,18.11a10.23,10.23,0,0,1,4-4,11.3,11.3,0,0,1,5.73-1.45,11.06,11.06,0,0,1,5.68,1.45,10.1,10.1,0,0,1,3.91,4,12.4,12.4,0,0,1,1.4,6C78.7,24.37,78.67,24.78,78.62,25.28ZM62.86,17.77a7.1,7.1,0,0,0-2.29,4.62H74.84a7.14,7.14,0,0,0-2.29-4.6A6.89,6.89,0,0,0,67.71,16,7,7,0,0,0,62.86,17.77Z"/><path class="cls-1" d="M89.64,13.63a11.13,11.13,0,0,1,5-1v3.94a7.43,7.43,0,0,0-.92,0,6.77,6.77,0,0,0-5.15,2A7.89,7.89,0,0,0,86.7,24.1V35.29h-4V12.82h3.86v3.77A6.81,6.81,0,0,1,89.64,13.63Z"/><polygon class="cls-2" points="105.44 5.77 100.3 5.77 100.3 35.54 117.21 35.54 117.21 30.77 105.44 30.77 105.44 5.77"/><path class="cls-2" d="M177.42,13.63a7.31,7.31,0,0,0-2.07,1.49v-2.3h-4.82V35.31h5V23.92a6.75,6.75,0,0,1,1.59-4.82,5.75,5.75,0,0,1,4.41-1.66,7.27,7.27,0,0,1,.79,0l.67.08V12.62h-.59A11.19,11.19,0,0,0,177.42,13.63Z"/><path class="cls-2" d="M204.19,15.1h0a9.3,9.3,0,0,0-6.76-2.48,11.5,11.5,0,0,0-4.68.92A8.47,8.47,0,0,0,190.49,15V12.82h-4.82V35.31h5V23.56a6.49,6.49,0,0,1,1.6-4.73,5.91,5.91,0,0,1,4.43-1.62,4.92,4.92,0,0,1,3.76,1.35,5.9,5.9,0,0,1,1.29,4.17V35.31h5v-13C206.71,19.17,205.86,16.75,204.19,15.1Z"/><path class="cls-2" d="M139.16,18l-2.11-2.11a10.91,10.91,0,0,0-6.28-3.16,11.09,11.09,0,0,0-10,3.45,10.68,10.68,0,0,0-2.91,5.87,11.1,11.1,0,0,0,2.43,9.1,10.78,10.78,0,0,0,6.67,3.94A11.05,11.05,0,0,0,137,32c2.51-2.45,5-4.95,7.45-7.42l5.3-5.29a6.34,6.34,0,0,1,3.55-1.84A6.6,6.6,0,0,1,161,23.11a6.56,6.56,0,0,1-5.09,7.28,6.39,6.39,0,0,1-6.08-1.74c-.91-.89-1.8-1.8-2.7-2.7-.07-.08-.13-.17-.21-.28L143.47,29c.06.07.11.14.17.2,1,1,1.93,2,2.92,2.92a10.91,10.91,0,0,0,6.14,3,11.09,11.09,0,0,0,8.93-2.41,10.93,10.93,0,0,0,4-6.71,11.05,11.05,0,0,0-2.09-8.92,10.93,10.93,0,0,0-7-4.32,11.16,11.16,0,0,0-9.25,2.31,10.49,10.49,0,0,0-.86.77l-7.52,7.5q-2.59,2.58-5.18,5.18a6.47,6.47,0,0,1-4.06,1.95,6.59,6.59,0,0,1-2.12-13,6.39,6.39,0,0,1,6.08,1.72c.94.91,1.22,1.21,2.14,2.14C136.38,20.84,138.58,18.58,139.16,18Z"/><polygon class="cls-2" points="139.16 18.02 126.17 31.01 122.81 27.65 135.5 14.96 139.16 18.02"/><path class="cls-2" d="M167.31,35.33c-4.62,0-6.26-3.1-6.26-5.75V24.1h4.75v5.48c0,.49,0,1,1.51,1Z"/></svg>